<svg width="20" height="18" viewBox="0 0 20 18" fill="none" xmlns="http://www.w3.org/2000/svg">
<path d="M18.2895 7.78284H4.24473L8.54341 2.47263C8.74442 2.22391 8.84112 1.90325 8.81225 1.5812C8.78338 1.25914 8.6313 0.962075 8.38946 0.755344C8.14763 0.548614 7.83585 0.449155 7.52271 0.478848C7.20958 0.50854 6.92073 0.664953 6.71973 0.913676L0.798675 8.22129C0.758839 8.27942 0.723216 8.34048 0.692095 8.40398C0.692095 8.46488 0.692096 8.50142 0.609201 8.56231C0.555525 8.70196 0.527421 8.85061 0.526306 9.00077C0.527421 9.15093 0.555525 9.29958 0.609201 9.43923C0.609201 9.50012 0.609201 9.53666 0.692095 9.59756C0.723216 9.66106 0.758839 9.72213 0.798675 9.78025L6.71973 17.0879C6.83107 17.2253 6.9705 17.3359 7.1281 17.4117C7.2857 17.4875 7.4576 17.5266 7.63157 17.5263C7.90826 17.5269 8.17641 17.4278 8.38946 17.2462C8.50938 17.144 8.6085 17.0184 8.68115 16.8767C8.7538 16.735 8.79856 16.5799 8.81286 16.4204C8.82716 16.2609 8.81072 16.1 8.76449 15.947C8.71825 15.7941 8.64312 15.652 8.54341 15.5289L4.24473 10.2187H18.2895C18.6035 10.2187 18.9047 10.0904 19.1268 9.86198C19.3489 9.63357 19.4737 9.32379 19.4737 9.00077C19.4737 8.67775 19.3489 8.36797 19.1268 8.13956C18.9047 7.91115 18.6035 7.78284 18.2895 7.78284Z" fill="#2C2C2C"/>
</svg>
