<svg width="84" height="84" viewBox="0 0 84 84" fill="none" xmlns="http://www.w3.org/2000/svg">
<path d="M36.1667 49.5L27.1042 40.4375C26.3403 39.6736 25.3848 39.3083 24.2375 39.3417C23.0903 39.375 22.1362 39.775 21.375 40.5416C20.6112 41.3055 20.2292 42.2778 20.2292 43.4583C20.2292 44.6389 20.6112 45.6111 21.375 46.375L33.25 58.25C34.0139 59.0139 34.9862 59.3958 36.1667 59.3958C37.3473 59.3958 38.3195 59.0139 39.0834 58.25L62.7292 34.6042C63.4931 33.8403 63.8584 32.8847 63.825 31.7375C63.7917 30.5903 63.3917 29.6361 62.625 28.875C61.8612 28.1111 60.8889 27.7291 59.7084 27.7291C58.5278 27.7291 57.5556 28.1111 56.7917 28.875L36.1667 49.5ZM42 83.6667C36.2362 83.6667 30.8195 82.5722 25.75 80.3833C20.6806 78.1944 16.2709 75.2264 12.5209 71.4792C8.77088 67.7292 5.80282 63.3194 3.61671 58.25C1.4306 53.1805 0.336152 47.7639 0.333374 42C0.333374 36.2361 1.42782 30.8194 3.61671 25.75C5.8056 20.6805 8.77365 16.2708 12.5209 12.5208C16.2709 8.77081 20.6806 5.80276 25.75 3.61665C30.8195 1.43054 36.2362 0.336091 42 0.333313C47.7639 0.333313 53.1806 1.42776 58.25 3.61665C63.3195 5.80554 67.7292 8.77359 71.4792 12.5208C75.2292 16.2708 78.1987 20.6805 80.3875 25.75C82.5764 30.8194 83.6695 36.2361 83.6667 42C83.6667 47.7639 82.5723 53.1805 80.3834 58.25C78.1945 63.3194 75.2264 67.7292 71.4792 71.4792C67.7292 75.2292 63.3195 78.1986 58.25 80.3875C53.1806 82.5764 47.7639 83.6694 42 83.6667ZM42 75.3333C51.2362 75.3333 59.1014 72.0875 65.5959 65.5958C72.0903 59.1042 75.3362 51.2389 75.3334 42C75.3334 32.7639 72.0875 24.8986 65.5959 18.4041C59.1042 11.9097 51.2389 8.66387 42 8.66665C32.7639 8.66665 24.8987 11.9125 18.4042 18.4041C11.9098 24.8958 8.66393 32.7611 8.66671 42C8.66671 51.2361 11.9125 59.1014 18.4042 65.5958C24.8959 72.0903 32.7612 75.3361 42 75.3333Z" fill="#039800"/>
</svg>
