<svg width="24" height="24" viewBox="0 0 24 24" fill="none" xmlns="http://www.w3.org/2000/svg">
<path d="M3.0435 11.9149C2.71804 12.2037 2.48636 12.4251 2.23997 12.6265C1.71594 13.055 1.16432 13.0303 0.670619 12.5676C0.579602 12.483 0.494101 12.3909 0.410439 12.2997C-0.131986 11.7107 -0.143938 11.0647 0.425149 10.5165C1.78673 9.20458 3.16485 7.91067 4.53746 6.61011C6.1013 5.1281 7.6679 3.648 9.23266 2.16599C9.84036 1.59028 10.4398 1.00413 11.053 0.434126C11.6552 -0.125428 12.3456 -0.152028 12.9552 0.397075C15.1193 2.34364 17.2697 4.3054 19.4275 6.25956C20.7238 7.43377 22.0229 8.60418 23.3219 9.77648C23.7347 10.1489 24.1466 10.5327 23.9508 11.1806C23.7411 11.8731 23.2585 12.3614 22.6131 12.5543C22.3419 12.635 21.9714 12.3624 21.611 12.2389C21.611 12.3443 21.611 12.5277 21.611 12.7111C21.611 15.9876 21.611 19.2642 21.611 22.5417C21.611 23.5886 21.2101 23.999 20.1906 23.999C18.8575 23.999 17.5253 24 16.1922 23.999C15.3097 23.9981 14.907 23.5829 14.9051 22.6576C14.9015 20.3624 14.9042 18.0672 14.9042 15.772C14.9042 15.5848 14.9042 15.3986 14.9042 15.1887C13.1142 15.1887 11.3729 15.1887 9.56822 15.1887C9.56822 15.3787 9.56822 15.563 9.56822 15.7473C9.56822 17.9636 9.56822 20.18 9.56822 22.3954C9.56822 23.5877 9.17566 23.999 8.04392 23.999C6.80278 23.999 5.56256 24.0009 4.32141 23.9981C3.49491 23.9962 3.04626 23.5354 3.04626 22.6861C3.04534 19.2984 3.04534 15.9107 3.04534 12.523C3.0435 12.3558 3.0435 12.1876 3.0435 11.9149Z" fill="#F25A2C"/>
</svg>
